{
	"asset":{
		"generator":"Khronos glTF Blender I/O v4.4.55",
		"version":"2.0"
	},
	"scene":0,
	"scenes":[
		{
			"name":"Scene",
			"nodes":[
				0
			]
		}
	],
	"nodes":[
		{
			"mesh":0,
			"name":"Cube",
			"scale":[
				3.4182894229888916,
				1,
				3.4182894229888916
			]
		}
	],
	"materials":[
		{
			"doubleSided":true,
			"name":"Material",
			"pbrMetallicRoughness":{
				"baseColorTexture":{
					"index":0
				},
				"metallicFactor":0,
				"roughnessFactor":0.5
			}
		}
	],
	"meshes":[
		{
			"name":"Cube",
			"primitives":[
				{
					"attributes":{
						"POSITION":0,
						"NORMAL":1,
						"TEXCOORD_0":2
					},
					"indices":3,
					"material":0
				}
			]
		}
	],
	"textures":[
		{
			"sampler":0,
			"source":0
		}
	],
	"images":[
		{
			"mimeType":"image/png",
			"name":"DefaultTextureDiffuse",
			"uri":"DefaultTextureDiffuse.png"
		}
	],
	"accessors":[
		{
			"bufferView":0,
			"componentType":5126,
			"count":2401,
			"max":[
				6.026925086975098,
				4.383242607116699,
				6.026925086975098
			],
			"min":[
				-6.026925086975098,
				0.17122870683670044,
				-6.178267002105713
			],
			"type":"VEC3"
		},
		{
			"bufferView":1,
			"componentType":5126,
			"count":2401,
			"type":"VEC3"
		},
		{
			"bufferView":2,
			"componentType":5126,
			"count":2401,
			"type":"VEC2"
		},
		{
			"bufferView":3,
			"componentType":5123,
			"count":13824,
			"type":"SCALAR"
		}
	],
	"bufferViews":[
		{
			"buffer":0,
			"byteLength":28812,
			"byteOffset":0,
			"target":34962
		},
		{
			"buffer":0,
			"byteLength":28812,
			"byteOffset":28812,
			"target":34962
		},
		{
			"buffer":0,
			"byteLength":19208,
			"byteOffset":57624,
			"target":34962
		},
		{
			"buffer":0,
			"byteLength":27648,
			"byteOffset":76832,
			"target":34963
		}
	],
	"samplers":[
		{
			"magFilter":9728,
			"minFilter":9984
		}
	],
	"buffers":[
		{
			"byteLength":104480,
			"uri":"Def.bin"
		}
	]
}
